<svg width="65" height="36" viewBox="0 0 65 36" fill="none" xmlns="http://www.w3.org/2000/svg">
<circle cx="2.70833" cy="2.70833" r="2.70833" transform="matrix(-1 0 0 1 35.2096 0)" fill="#F48D05"/>
<circle cx="2.70833" cy="2.70833" r="2.70833" transform="matrix(-1 0 0 1 35.2096 14.8955)" fill="#F48D05"/>
<circle cx="2.70833" cy="2.70833" r="2.70833" transform="matrix(-1 0 0 1 50.1042 29.792)" fill="#F48D05"/>
<circle cx="2.70833" cy="2.70833" r="2.70833" transform="matrix(-1 0 0 1 65.0006 29.792)" fill="#F48D05"/>
<circle cx="2.70833" cy="2.70833" r="2.70833" transform="matrix(-1 0 0 1 65.0006 14.8955)" fill="#F48D05"/>
<circle cx="2.70833" cy="2.70833" r="2.70833" transform="matrix(-1 0 0 1 20.3131 0)" fill="#F48D05"/>
<circle cx="2.70833" cy="2.70833" r="2.70833" transform="matrix(-1 0 0 1 20.3131 14.8955)" fill="#F48D05"/>
<circle cx="2.70833" cy="2.70833" r="2.70833" transform="matrix(-1 0 0 1 35.2096 29.792)" fill="#F48D05"/>
<circle cx="2.70833" cy="2.70833" r="2.70833" transform="matrix(-1 0 0 1 50.1042 14.8955)" fill="#F48D05"/>
<circle cx="2.70833" cy="2.70833" r="2.70833" transform="matrix(-1 0 0 1 5.41666 0)" fill="#F48D05"/>
<circle cx="2.70833" cy="2.70833" r="2.70833" transform="matrix(-1 0 0 1 5.41666 14.8955)" fill="#F48D05"/>
<circle cx="2.70833" cy="2.70833" r="2.70833" transform="matrix(-1 0 0 1 20.3131 29.792)" fill="#F48D05"/>
</svg>
