<svg width="158" height="39" viewBox="0 0 158 39" fill="none" xmlns="http://www.w3.org/2000/svg">
<path d="M20.1661 13.3488C22.0382 13.6504 24.1678 14.3725 25.8627 15.2797C26.8491 15.8077 28.3984 16.7875 28.6695 17.8469C28.6805 17.7932 28.6832 17.7397 28.6765 17.6853C28.8948 16.9971 29.1312 16.2527 29.3733 15.4896C29.3724 15.4894 29.3714 15.4895 29.3705 15.4892C29.5627 14.8835 29.7583 14.2668 29.9517 13.6554C30.0266 12.982 29.014 11.9949 27.2991 11.072C25.6168 10.1664 23.5022 9.43802 21.6427 9.1239C19.5914 8.77698 18.067 8.96047 17.3411 9.63953C17.3062 9.71243 17.2259 9.88901 17.1742 10.0722C17.0479 10.5188 16.8933 11.062 16.7348 11.6128C16.7322 11.6111 16.7297 11.6094 16.7271 11.6077C16.4703 12.498 16.2656 13.1896 16.1273 13.6326C16.8577 13.2524 18.0902 13.014 20.1661 13.3488Z" fill="#FFC743"/>
<mask id="mask0_1241_33914" style="mask-type:luminance" maskUnits="userSpaceOnUse" x="10" y="0" width="29" height="17">
<path d="M12.8242 0.427734L38.5882 7.33117L36.0597 16.7675L10.2958 9.86402L12.8242 0.427734Z" fill="white"/>
</mask>
<g mask="url(#mask0_1241_33914)">
<path d="M36.8774 13.2216L25.5919 3.87416C25.548 3.83778 25.4915 3.82263 25.4353 3.83221L11.4062 6.20118C11.3249 6.21502 11.2574 6.27816 11.2339 6.36209C11.2103 6.44633 11.2354 6.53529 11.2978 6.58961L16.4371 11.0512C16.5428 10.6827 16.6554 10.2874 16.7745 9.86652C16.8553 9.57856 16.9893 9.31716 16.9948 9.30633L17.013 9.27091L17.0409 9.24377C17.62 8.67417 18.9071 8.0962 21.7484 8.57653C23.6495 8.89783 25.8111 9.64217 27.531 10.5678C28.6806 11.1864 30.5833 12.409 30.407 13.6432L30.4039 13.6637L30.3976 13.6833C30.2513 14.1461 30.1034 14.6122 29.9571 15.074L36.7809 13.6116C36.8608 13.5944 36.9259 13.5292 36.9467 13.4452C36.9672 13.3612 36.9403 13.2741 36.8774 13.2216Z" fill="#FFC743"/>
</g>
<path d="M33.6626 17.4138L33.2672 17.3002L34.544 12.8596L34.9396 12.9733L33.6626 17.4138Z" fill="white"/>
<path fill-rule="evenodd" clip-rule="evenodd" d="M33.0268 17.8269C32.0543 18.5987 31.4596 19.8502 31.1536 21.4718C31.941 22.6023 32.7158 22.7783 33.4812 22.2216C34.3124 19.1618 34.2698 17.5194 33.0268 17.8269Z" fill="white"/>
<path fill-rule="evenodd" clip-rule="evenodd" d="M31.6969 22.1051L32.4505 18.9569L31.3775 21.7688C31.4849 21.8971 31.59 22.0092 31.6969 22.1051Z" fill="white"/>
<path fill-rule="evenodd" clip-rule="evenodd" d="M32.6901 20.5289L32.3423 21.8582L32.6113 20.0713L32.1335 22.312C32.2492 22.3833 32.3628 22.4363 32.4735 22.4753L32.4858 22.4769L32.6901 20.5289Z" fill="white"/>
<path fill-rule="evenodd" clip-rule="evenodd" d="M33.502 19.522L32.7287 22.5258C32.812 22.5195 32.8962 22.5044 32.9801 22.4796L33.4399 21.0508L33.2702 20.9001L33.502 19.522Z" fill="white"/>
<path fill-rule="evenodd" clip-rule="evenodd" d="M33.7805 16.7503C34.1874 16.8803 34.4157 17.2984 34.2912 17.6835C34.1681 18.0694 33.7379 18.2747 33.3313 18.1448C32.925 18.0133 32.6949 17.595 32.8195 17.2096C32.944 16.8245 33.373 16.6185 33.7805 16.7503Z" fill="white"/>
<g clip-path="url(#clip0_1241_33914)">
<mask id="mask1_1241_33914" style="mask-type:luminance" maskUnits="userSpaceOnUse" x="0" y="14" width="29" height="20">
<path d="M0 14.9165H28.5539V33.6478H0V14.9165Z" fill="white"/>
</mask>
<g mask="url(#mask1_1241_33914)">
<path d="M20.3783 20.0743C21.5139 20.0743 22.546 20.2662 23.4752 20.6502C23.8023 20.7852 24.1114 20.9381 24.4032 21.1085C24.1581 20.6603 23.8612 20.2543 23.5165 19.8962C22.9957 19.3563 22.3449 18.9227 21.5829 18.6074C20.8244 18.2945 19.9604 18.133 19.0145 18.1282H13.6279L14.4822 20.0743H20.3783ZM3.63318 33.6466H5.7197L7.65363 29.0875L6.6483 26.7512L3.63318 33.6466ZM28.5551 24.2551C28.5551 25.5757 28.3231 26.8107 27.8594 27.9614C27.3954 29.1116 26.7386 30.1066 25.8886 30.9447C25.0385 31.7829 24.0251 32.4429 22.8488 32.9242C21.8824 33.3204 20.8381 33.5529 19.7156 33.6234C19.4711 33.6392 19.2233 33.6466 18.9717 33.6466H16.1538L9.14616 17.3605L2.08652 33.6466H0L8.21846 14.918H10.125L17.4895 31.7005H18.9696C20.1052 31.7005 21.1373 31.5134 22.0665 31.1384C22.9957 30.7636 23.7827 30.2413 24.4278 29.5712C25.0733 28.9019 25.5724 28.1209 25.9251 27.2286C26.2782 26.336 26.4546 25.363 26.4546 24.3092C26.4546 23.2738 26.2782 22.3012 25.9251 21.3902C25.5724 20.4794 25.0733 19.6894 24.4278 19.0199C23.7827 18.3507 22.9957 17.8239 22.0665 17.4402C21.1373 17.0562 20.1052 16.8641 18.9696 16.8641H13.0735L12.2193 14.918H18.9717C20.38 14.918 21.6724 15.1547 22.8488 15.6274C24.0251 16.1 25.0385 16.7555 25.8886 17.5937C26.7386 18.4322 27.3954 19.422 27.8594 20.5633C28.3231 21.7049 28.5551 22.9357 28.5551 24.2551Z" fill="white"/>
</g>
</g>
<path d="M80.4392 32.3621V30.0843H84.4301C85.4712 30.0843 86.3821 29.8602 87.163 29.4118C87.9583 28.9635 88.5728 28.3417 89.0066 27.5462C89.4548 26.7364 89.679 25.8036 89.679 24.7479C89.679 23.7066 89.4548 22.7883 89.0066 21.9929C88.5583 21.1974 87.9366 20.5756 87.1413 20.1273C86.3605 19.6789 85.4567 19.4548 84.4301 19.4548H80.4392V17.177H84.4952C85.5941 17.177 86.6135 17.3723 87.5534 17.7627C88.4933 18.1387 89.3102 18.6738 90.0043 19.368C90.7128 20.0477 91.2623 20.8504 91.6527 21.7759C92.0431 22.687 92.2383 23.6849 92.2383 24.7695C92.2383 25.8397 92.0431 26.8376 91.6527 27.7632C91.2623 28.6887 90.7201 29.4986 90.026 30.1928C89.3319 30.8725 88.515 31.4076 87.5751 31.7981C86.6352 32.1741 85.623 32.3621 84.5385 32.3621H80.4392ZM78.7257 32.3621V17.177H81.22V32.3621H78.7257Z" fill="#8980F5"/>
<path d="M94.4774 32.3621V21.9495H96.8633V32.3621H94.4774ZM95.6704 20.0405C95.2655 20.0405 94.9257 19.9031 94.651 19.6283C94.3907 19.3535 94.2605 19.0137 94.2605 18.6088C94.2605 18.2038 94.3907 17.864 94.651 17.5892C94.9257 17.3144 95.2655 17.177 95.6704 17.177C96.0897 17.177 96.4295 17.3144 96.6898 17.5892C96.9501 17.864 97.0802 18.2038 97.0802 18.6088C97.0802 19.0137 96.9501 19.3535 96.6898 19.6283C96.4295 19.9031 96.0897 20.0405 95.6704 20.0405Z" fill="#8980F5"/>
<path d="M105.113 32.579C104.318 32.579 103.61 32.4127 102.988 32.0801C102.366 31.733 101.874 31.263 101.513 30.67C101.166 30.0771 100.992 29.4046 100.992 28.6526V25.659C100.992 24.9069 101.173 24.2345 101.535 23.6415C101.896 23.0486 102.388 22.5858 103.01 22.2532C103.631 21.9061 104.333 21.7325 105.113 21.7325C106.053 21.7325 106.899 21.9784 107.651 22.4701C108.418 22.9473 109.018 23.5981 109.451 24.4225C109.9 25.2323 110.124 26.1507 110.124 27.1775C110.124 28.1898 109.9 29.1081 109.451 29.9325C109.018 30.7423 108.418 31.3859 107.651 31.8631C106.899 32.3404 106.053 32.579 105.113 32.579ZM99.5392 36.7007V21.9495H101.925V24.7479L101.513 27.2859L101.925 29.8023V36.7007H99.5392ZM104.723 30.3229C105.301 30.3229 105.808 30.1928 106.241 29.9325C106.69 29.6577 107.037 29.2817 107.282 28.8044C107.543 28.3272 107.673 27.7776 107.673 27.1558C107.673 26.5339 107.543 25.9844 107.282 25.5071C107.037 25.0299 106.69 24.6611 106.241 24.4008C105.808 24.126 105.301 23.9886 104.723 23.9886C104.145 23.9886 103.631 24.126 103.183 24.4008C102.735 24.6611 102.388 25.0299 102.142 25.5071C101.896 25.9844 101.773 26.5339 101.773 27.1558C101.773 27.7776 101.896 28.3272 102.142 28.8044C102.388 29.2817 102.735 29.6577 103.183 29.9325C103.631 30.1928 104.145 30.3229 104.723 30.3229Z" fill="#8980F5"/>
<path d="M112.121 32.3621V16.7432H114.507V32.3621H112.121Z" fill="#8980F5"/>
<path d="M121.934 32.579C120.922 32.579 120.003 32.3404 119.179 31.8631C118.355 31.3714 117.697 30.7134 117.205 29.8891C116.728 29.0647 116.49 28.1464 116.49 27.1341C116.49 26.1217 116.728 25.2106 117.205 24.4008C117.697 23.5909 118.355 22.9473 119.179 22.4701C120.003 21.9784 120.922 21.7325 121.934 21.7325C122.96 21.7325 123.886 21.9712 124.71 22.4484C125.534 22.9256 126.185 23.5764 126.662 24.4008C127.154 25.2106 127.4 26.1217 127.4 27.1341C127.4 28.1464 127.154 29.0647 126.662 29.8891C126.185 30.7134 125.534 31.3714 124.71 31.8631C123.886 32.3404 122.96 32.579 121.934 32.579ZM121.934 30.2796C122.527 30.2796 123.047 30.1494 123.495 29.8891C123.958 29.6143 124.312 29.2383 124.558 28.761C124.818 28.2838 124.949 27.7415 124.949 27.1341C124.949 26.5267 124.818 25.9916 124.558 25.5288C124.298 25.066 123.944 24.7045 123.495 24.4442C123.047 24.1694 122.527 24.032 121.934 24.032C121.355 24.032 120.835 24.1694 120.372 24.4442C119.924 24.7045 119.57 25.066 119.309 25.5288C119.063 25.9916 118.941 26.5267 118.941 27.1341C118.941 27.7415 119.063 28.2838 119.309 28.761C119.57 29.2383 119.924 29.6143 120.372 29.8891C120.835 30.1494 121.355 30.2796 121.934 30.2796Z" fill="#8980F5"/>
<path d="M129.384 32.3621V21.9495H131.769V32.3621H129.384ZM136.303 32.3621V26.1579C136.303 25.4637 136.086 24.9286 135.652 24.5526C135.218 24.1621 134.683 23.9669 134.047 23.9669C133.613 23.9669 133.223 24.0537 132.876 24.2272C132.543 24.4008 132.276 24.6539 132.073 24.9865C131.871 25.3046 131.769 25.6951 131.769 26.1579L130.837 25.6373C130.837 24.8419 131.01 24.1549 131.357 23.5764C131.704 22.998 132.174 22.5496 132.767 22.2315C133.36 21.8989 134.025 21.7325 134.763 21.7325C135.5 21.7325 136.165 21.8916 136.758 22.2098C137.351 22.5279 137.821 22.9763 138.168 23.5547C138.515 24.1332 138.688 24.8274 138.688 25.6373V32.3621H136.303ZM143.222 32.3621V26.1579C143.222 25.4637 143.005 24.9286 142.571 24.5526C142.137 24.1621 141.602 23.9669 140.966 23.9669C140.547 23.9669 140.163 24.0537 139.816 24.2272C139.469 24.4008 139.195 24.6539 138.992 24.9865C138.79 25.3046 138.688 25.6951 138.688 26.1579L137.344 25.6373C137.416 24.8419 137.647 24.1549 138.038 23.5764C138.428 22.998 138.927 22.5496 139.534 22.2315C140.156 21.8989 140.836 21.7325 141.573 21.7325C142.325 21.7325 143.005 21.8916 143.612 22.2098C144.219 22.5279 144.704 22.9763 145.065 23.5547C145.427 24.1332 145.607 24.8274 145.607 25.6373V32.3621H143.222Z" fill="#8980F5"/>
<path d="M152.425 32.579C151.485 32.579 150.632 32.3404 149.866 31.8631C149.114 31.3859 148.514 30.7423 148.065 29.9325C147.632 29.1081 147.415 28.1898 147.415 27.1775C147.415 26.1507 147.632 25.2323 148.065 24.4225C148.514 23.5981 149.114 22.9473 149.866 22.4701C150.632 21.9784 151.485 21.7325 152.425 21.7325C153.22 21.7325 153.922 21.9061 154.529 22.2532C155.151 22.5858 155.642 23.0486 156.004 23.6415C156.365 24.2345 156.546 24.9069 156.546 25.659V28.6526C156.546 29.4046 156.365 30.0771 156.004 30.67C155.657 31.263 155.172 31.733 154.551 32.0801C153.929 32.4127 153.22 32.579 152.425 32.579ZM152.815 30.3229C153.698 30.3229 154.406 30.0265 154.941 29.4335C155.491 28.8406 155.765 28.0813 155.765 27.1558C155.765 26.5339 155.642 25.9844 155.397 25.5071C155.151 25.0299 154.804 24.6611 154.355 24.4008C153.922 24.126 153.408 23.9886 152.815 23.9886C152.237 23.9886 151.724 24.126 151.276 24.4008C150.842 24.6611 150.495 25.0299 150.234 25.5071C149.989 25.9844 149.866 26.5339 149.866 27.1558C149.866 27.7776 149.989 28.3272 150.234 28.8044C150.495 29.2817 150.842 29.6577 151.276 29.9325C151.724 30.1928 152.237 30.3229 152.815 30.3229ZM155.613 32.3621V29.5637L156.026 27.0256L155.613 24.5092V21.9495H157.999V32.3621H155.613Z" fill="#8980F5"/>
<path d="M52.1658 29.4335V27.2642H50.5209L51.3778 29.4335H52.1658Z" fill="white"/>
<path d="M44.119 27.2642V29.4335H44.8523L45.7168 27.2642H44.119Z" fill="white"/>
<path d="M48.587 20.0622H47.6761L48.1295 21.2102L48.587 20.0622Z" fill="white"/>
<path d="M68.8314 31.8848C69.67 32.3476 70.6099 32.579 71.651 32.579C72.4608 32.579 73.2271 32.4272 73.9501 32.1235C74.6731 31.8198 75.2876 31.3714 75.7937 30.7785L74.2755 29.2383C73.9573 29.5998 73.5669 29.8746 73.1042 30.0626C72.656 30.2506 72.1643 30.3446 71.6293 30.3446C71.0076 30.3446 70.4581 30.2145 69.9809 29.9542C69.5038 29.6794 69.135 29.2961 68.8748 28.8044C68.7504 28.5695 68.6558 28.3164 68.5908 28.0452H67.812V26.0928H68.5982C68.6589 25.8501 68.7439 25.6259 68.8531 25.4203C69.0989 24.9431 69.4459 24.5743 69.8942 24.314C70.3424 24.0537 70.8702 23.9235 71.4775 23.9235C72.0559 23.9235 72.5403 24.0392 72.9307 24.2706C73.3356 24.502 73.6465 24.8346 73.8634 25.2685C73.9848 25.5115 74.0768 25.7863 74.1394 26.0928H75.1214L74.2321 26.8738C74.2194 26.5954 74.188 26.3325 74.1394 26.0928H68.5982C68.5223 26.3964 68.4843 26.729 68.4843 27.0907C68.4843 27.4161 68.5169 27.7216 68.5819 28.0072C68.5848 28.0199 68.5878 28.0326 68.5908 28.0452H76.3577C76.401 27.8283 76.43 27.633 76.4444 27.4595C76.4733 27.2715 76.4878 27.0907 76.4878 26.9171C76.4878 25.9193 76.2709 25.0299 75.8371 24.2489C75.4178 23.468 74.8322 22.8533 74.0803 22.405C73.3428 21.9567 72.4897 21.7325 71.5209 21.7325C70.5232 21.7325 69.6122 21.9712 68.788 22.4484C67.9783 22.9256 67.3348 23.5764 66.8576 24.4008C66.3805 25.2106 66.1419 26.129 66.1419 27.1558C66.1419 28.1826 66.3805 29.1081 66.8576 29.9325C67.3493 30.7568 68.0072 31.4076 68.8314 31.8848Z" fill="white"/>
<path d="M67.812 26.0928V28.0452H68.5908C68.5878 28.0326 68.5848 28.0199 68.5819 28.0072C68.5169 27.7216 68.4843 27.4161 68.4843 27.0907C68.4843 26.729 68.5223 26.3964 68.5982 26.0928H67.812Z" fill="white"/>
<path d="M74.2321 26.8738L75.1214 26.0928H74.1394C74.188 26.3325 74.2194 26.5954 74.2321 26.8738Z" fill="white"/>
<path d="M41.0391 32.3621L47.2857 17.177H49.0208L55.224 32.3621H52.5345L51.3778 29.4335H52.1658V27.2642H50.5209L48.1295 21.2102L48.587 20.0622H47.6761L48.1295 21.2102L45.7168 27.2642H44.119V29.4335H44.8523L43.6852 32.3621H41.0391Z" fill="white"/>
<path d="M51.3778 29.4335H44.8523L45.7168 27.2642H50.5209L51.3778 29.4335Z" fill="white"/>
<path d="M61.25 32.579C60.2234 32.579 59.2907 32.3404 58.4521 31.8631C57.6279 31.3859 56.9772 30.7351 56.5 29.9108C56.0228 29.0864 55.7842 28.1681 55.7842 27.1558C55.7842 26.129 56.0228 25.2106 56.5 24.4008C56.9772 23.5764 57.6279 22.9256 58.4521 22.4484C59.2907 21.9712 60.2234 21.7325 61.25 21.7325C62.0598 21.7325 62.8117 21.8916 63.5057 22.2098C64.2143 22.5135 64.8143 22.9546 65.306 23.5331L63.7443 25.1166C63.4407 24.7551 63.0719 24.4875 62.6382 24.314C62.2188 24.126 61.7561 24.032 61.25 24.032C60.6572 24.032 60.1294 24.1694 59.6667 24.4442C59.2184 24.7045 58.8642 25.066 58.6039 25.5288C58.3581 25.9916 58.2352 26.5339 58.2352 27.1558C58.2352 27.7632 58.3581 28.3055 58.6039 28.7827C58.8642 29.2455 59.2184 29.6143 59.6667 29.8891C60.1294 30.1494 60.6572 30.2796 61.25 30.2796C61.7561 30.2796 62.2188 30.1928 62.6382 30.0192C63.0719 29.8312 63.4407 29.5565 63.7443 29.1949L65.306 30.7785C64.8143 31.357 64.2143 31.8053 63.5057 32.1235C62.8117 32.4272 62.0598 32.579 61.25 32.579Z" fill="white"/>
<defs>
<clipPath id="clip0_1241_33914">
<rect width="28.5539" height="28.5539" fill="white" transform="translate(0 10.0181)"/>
</clipPath>
</defs>
</svg>
