<svg width="24" height="24" viewBox="0 0 24 24" fill="none" xmlns="http://www.w3.org/2000/svg">
<path d="M11.9424 20.9893L12.375 21C12.1697 21 11.9663 20.9897 11.7646 20.9756C11.8238 20.9797 11.8829 20.9863 11.9424 20.9893ZM12.375 3.75C17.1384 3.75 21 7.61155 21 12.375C21 16.7587 17.7292 20.3755 13.4951 20.9248V14.2656H15.373L15.6221 11.9209H13.4951L13.498 10.7471C13.4981 10.1357 13.5566 9.80773 14.4346 9.80762H15.6094V7.46289H13.7305C11.4741 7.46298 10.6797 8.60071 10.6797 10.5137V11.9209H9.27344V14.2656H10.6797V20.832C6.72818 20.0443 3.75 16.5581 3.75 12.375C3.75 7.61155 7.61155 3.75 12.375 3.75Z" fill="white"/>
</svg>
